<?xml version="1.0" encoding="UTF-8"?> <svg xmlns="http://www.w3.org/2000/svg" width="36" height="36" viewBox="0 0 36 36" fill="none"><rect width="36" height="36" rx="18" fill="#EFF3F3"></rect><path fill-rule="evenodd" clip-rule="evenodd" d="M14.3379 16.2101C14.3103 15.8438 14.3822 15.4769 14.546 15.1478C14.5959 15.0167 14.6653 14.8938 14.7519 14.7832C14.9063 14.5751 15.1127 14.4107 15.3506 14.3065C15.3506 14.3065 16.0575 14.2374 16.1186 14.3321C16.4462 14.8987 16.7203 15.4943 16.9373 16.1114C17.0455 16.515 16.4774 16.9756 16.4774 16.9756C16.4774 16.9756 16.1175 17.1584 16.4774 17.6111C16.7456 17.949 17.2019 18.5377 17.476 18.7551C17.7655 18.9911 18.0735 19.2037 18.397 19.3908C19.0662 19.7605 19.1909 19.7211 19.1909 19.7211C19.1909 19.7211 19.3144 19.7714 19.6508 19.3145C19.8307 19.0719 20.0272 18.7872 20.2142 18.7298C20.4306 18.6638 22.1784 19.6638 22.109 19.594C22.2314 19.7169 22.1349 20.111 22.1349 20.111C22.1349 20.111 22.1726 20.5519 21.5068 21.0602C21.0681 21.3955 20.3424 21.4753 20.3424 21.4753C19.8854 21.4427 19.4363 21.3399 19.0109 21.1706C18.3017 20.9042 17.5524 20.6801 16.5797 19.798C15.904 19.1867 15.3169 18.4847 14.8354 17.7121C14.3237 16.8331 14.3379 16.2101 14.3379 16.2101ZM18.1535 25.6441C16.7973 25.6461 15.4638 25.297 14.2837 24.6312L10 26L11.4079 21.8322C10.5194 20.3498 10.1482 18.6161 10.3522 16.9015C10.5562 15.1868 11.3238 13.5876 12.5355 12.3532C13.7472 11.1187 15.3348 10.3183 17.0508 10.0769C18.7669 9.83541 20.5149 10.1664 22.0223 11.0183C23.5298 11.8701 24.7119 13.195 25.3846 14.7862C26.0572 16.3775 26.1824 18.1458 25.7408 19.8154C25.2991 21.485 24.3154 22.9622 22.943 24.0165C21.5705 25.0708 19.8865 25.6431 18.1535 25.6441ZM18.1405 11.3322C16.9352 11.3277 15.7521 11.6544 14.7211 12.2765C13.6901 12.8985 12.8512 13.7917 12.2967 14.8579C11.7422 15.9241 11.4936 17.122 11.5781 18.3199C11.6626 19.5178 12.0771 20.6692 12.7759 21.6477L12.1513 23.5343L12.1536 23.5361L11.9713 24.0682L13.0311 23.7547C13.0294 23.7527 13.0274 23.751 13.0252 23.7496L14.479 23.2937C15.3302 23.8666 16.3044 24.2325 17.3234 24.362C18.3423 24.4915 19.3776 24.381 20.3459 24.0394C21.3141 23.6978 22.1885 23.1346 22.8985 22.3951C23.6086 21.6556 24.1346 20.7604 24.4343 19.7815C24.7339 18.8026 24.7988 17.7673 24.6238 16.7589C24.4488 15.7505 24.0387 14.797 23.4266 13.9752C22.8144 13.1534 22.0173 12.4861 21.0992 12.0271C20.1811 11.568 19.1677 11.33 18.1405 11.3322Z" fill="#00C232"></path></svg> 